<svg xmlns="http://www.w3.org/2000/svg" width="12" height="10" viewBox="0 0 12 10"><g><g><path fill="#22b9d9" d="M8.062.827c-1.333.02-2.384 1.172-2.384 2.505v.323C3.294 3.23 2.123 2.585.83 1.23.062 2.725.91 3.978 1.84 4.665c-.627 0-1.152-.08-1.556-.444-.04-.02-.08 0-.06.04.343 1.253 1.515 2.162 2.424 2.425-.829 0-1.374.12-1.96-.242-.04-.021-.08 0-.06.04C1.072 7.715 1.96 8.1 3.254 8.1c-.647.484-1.515.97-3.152 1.01-.06 0-.1.08-.04.121.606.506 2.1.889 4.202.889 3.455 0 6.263-3.07 6.263-6.868v-.203c.545-.202.848-.687 1.01-1.172 0-.02-.02-.04-.04-.04l-1.152.405c-.02 0-.04-.041-.02-.062.485-.384.848-.869 1.01-1.332 0 0-.02-.021-.04-.021-.546.222-1.071.445-1.475.565a.237.237 0 0 1-.202-.02c-.263-.14-1.05-.545-1.556-.545"/></g></g></svg>