<svg xmlns="http://www.w3.org/2000/svg" width="15" height="9" viewBox="0 0 15 9"><g><g><path fill="#fff" d="M13.06 5.596c.484.473.995.918 1.43 1.439.191.232.373.47.512.739.197.381.019.801-.324.824l-2.127-.001c-.549.046-.987-.176-1.355-.55-.294-.3-.567-.62-.85-.93a1.966 1.966 0 0 0-.383-.34c-.29-.19-.543-.132-.709.172-.169.308-.207.649-.224.992-.023.502-.174.633-.677.656-1.076.051-2.097-.112-3.045-.655-.836-.478-1.484-1.153-2.049-1.917C2.161 4.536 1.32 2.9.563 1.219.393.839.518.636.936.629a55.51 55.51 0 0 1 2.083 0c.282.003.468.165.577.432.376.923.835 1.801 1.412 2.616.154.217.31.434.534.586.246.169.434.113.55-.162.074-.174.106-.362.123-.549.055-.642.062-1.282-.034-1.923-.06-.4-.285-.657-.683-.733-.204-.039-.173-.114-.075-.23.171-.201.332-.325.653-.325H8.48c.379.075.463.244.515.626l.002 2.67c-.004.148.074.586.34.683.212.07.352-.1.48-.235.575-.611.986-1.333 1.353-2.081.163-.329.303-.67.439-1.011.1-.254.258-.378.543-.373l2.315.002c.068 0 .138 0 .204.013.39.066.497.234.377.614-.19.598-.56 1.096-.92 1.596-.386.534-.8 1.05-1.182 1.587-.352.49-.324.738.113 1.164z"/></g></g></svg>