<svg xmlns="http://www.w3.org/2000/svg"><symbol id="icon_facebook" viewBox="0 0 6 12"><path d="M5.885.225L4.451.222C2.841.222 1.8 1.29 1.8 2.943V4.2H.357c-.124 0-.225.1-.225.225v1.818c0 .125.1.226.225.226H1.8v4.586c0 .125.101.226.226.226h1.88c.125 0 .226-.1.226-.226V6.468h1.686a.226.226 0 0 0 .226-.226V4.424a.225.225 0 0 0-.225-.225H4.13V3.135c0-.511.122-.77.788-.77l.966-.001a.225.225 0 0 0 .225-.226V.451c0-.125-.1-.226-.225-.226z"/></symbol><symbol id="icon_mail" viewBox="0 0 15 10"><path d="M.05 1.451l7.154 3.987 7.155-3.987A1.138 1.138 0 0 0 13.245.53H1.163a1.138 1.138 0 0 0-1.114.921zm14.328 7.257V2.304l-6.99 3.897a.356.356 0 0 1-.184.05.4.4 0 0 1-.185-.05L.03 2.304v6.404c.002.625.508 1.13 1.133 1.133h12.082a1.135 1.135 0 0 0 1.133-1.133z"/></symbol><symbol id="icon_pen" viewBox="0 0 14 22"><path d="M7.319 21.886v-8.13a2.42 2.42 0 1 0-.637 0v8.13L.447 11.666l3.45-7.477h6.207l3.45 7.476zM1.006 3.556V-.117h11.987v3.671zm7.258 9.063a1.785 1.785 0 1 1-2.526-2.525 1.785 1.785 0 0 1 2.526 2.524z"/></symbol><symbol id="icon_refresh" viewBox="0 0 612.035 612.035"><path d="M323.128 56.236l5.646-9.57 40.17-40.169C271.247-13.921 165.482 13.786 89.65 89.646-16.421 195.717-28.355 360.261 53.875 479.49L10.98 522.386l137.7 19.667-19.667-137.7-34.968 34.967c-60.978-96.724-49.322-226.078 34.94-310.34 53.244-53.243 124.486-77.501 194.143-72.744zm258.264 13.743l-137.7-19.667 19.668 137.7 38.25-38.25c78.726 98.31 72.521 242.186-18.583 333.317-61.116 61.117-145.989 84.039-224.882 68.739l-45.65 45.649c105.654 33.799 226.05 8.791 309.895-75.054 112.858-112.858 119.146-291.979 18.805-412.209l40.197-40.225z"/></symbol><symbol id="icon_star" viewBox="0 0 39 37"><path fill-rule="evenodd" d="M19.5 2.501l5.603 10.056 11.395 2.166-7.933 8.382 1.44 11.394L19.5 29.623 8.995 34.499l1.439-11.394-7.932-8.382 11.395-2.166L19.5 2.501"/></symbol><symbol id="icon_telegram" viewBox="0 0 12 11"><path d="M.128 4.79L11.196.52a.318.318 0 0 1 .426.362l-1.986 9.554a.318.318 0 0 1-.498.192L6.426 8.66a.448.448 0 0 0-.546.015L4.376 9.901a.318.318 0 0 1-.504-.152L2.828 6.392.132 5.386a.318.318 0 0 1-.004-.596zm3.344 1.663l.57 2.003c.04.142.246.127.266-.02l.148-1.098a.903.903 0 0 1 .28-.54l4.35-4.043c.08-.075-.017-.203-.111-.145L3.704 5.856a.53.53 0 0 0-.232.597z"/></symbol><symbol id="icon_twitter" viewBox="0 0 12 10"><path d="M8.062.827c-1.333.02-2.384 1.172-2.384 2.505v.323C3.294 3.23 2.123 2.585.83 1.23.062 2.725.91 3.978 1.84 4.665c-.627 0-1.152-.08-1.556-.444-.04-.02-.08 0-.06.04.343 1.253 1.515 2.162 2.424 2.425-.829 0-1.374.12-1.96-.242-.04-.021-.08 0-.06.04C1.072 7.715 1.96 8.1 3.254 8.1c-.647.484-1.515.97-3.152 1.01-.06 0-.1.08-.04.121.606.506 2.1.889 4.202.889 3.455 0 6.263-3.07 6.263-6.868v-.203c.545-.202.848-.687 1.01-1.172 0-.02-.02-.04-.04-.04l-1.152.405c-.02 0-.04-.041-.02-.062.485-.384.848-.869 1.01-1.332 0 0-.02-.021-.04-.021-.546.222-1.071.445-1.475.565a.237.237 0 0 1-.202-.02c-.263-.14-1.05-.545-1.556-.545"/></symbol><symbol id="icon_vk" viewBox="0 0 15 9"><path d="M13.06 5.596c.484.473.995.918 1.43 1.439.191.232.373.47.512.739.197.381.019.801-.324.824l-2.127-.001c-.549.046-.987-.176-1.355-.55-.294-.3-.567-.62-.85-.93a1.966 1.966 0 0 0-.383-.34c-.29-.19-.543-.132-.709.172-.169.308-.207.649-.224.992-.023.502-.174.633-.677.656-1.076.051-2.097-.112-3.045-.655-.836-.478-1.484-1.153-2.049-1.917C2.161 4.536 1.32 2.9.563 1.219.393.839.518.636.936.629a55.51 55.51 0 0 1 2.083 0c.282.003.468.165.577.432.376.923.835 1.801 1.412 2.616.154.217.31.434.534.586.246.169.434.113.55-.162.074-.174.106-.362.123-.549.055-.642.062-1.282-.034-1.923-.06-.4-.285-.657-.683-.733-.204-.039-.173-.114-.075-.23.171-.201.332-.325.653-.325H8.48c.379.075.463.244.515.626l.002 2.67c-.004.148.074.586.34.683.212.07.352-.1.48-.235.575-.611.986-1.333 1.353-2.081.163-.329.303-.67.439-1.011.1-.254.258-.378.543-.373l2.315.002c.068 0 .138 0 .204.013.39.066.497.234.377.614-.19.598-.56 1.096-.92 1.596-.386.534-.8 1.05-1.182 1.587-.352.49-.324.738.113 1.164z"/></symbol></svg>